<?xml version="1.0" standalone="no"?>
<!DOCTYPE svg PUBLIC "-//W3C//DTD SVG 20010904//EN"
 "http://www.w3.org/TR/2001/REC-SVG-20010904/DTD/svg10.dtd">
<svg version="1.0" xmlns="http://www.w3.org/2000/svg"
 width="1500.000000pt" height="1500.000000pt" viewBox="0 0 1500.000000 1500.000000"
 preserveAspectRatio="xMidYMid meet">
<metadata>
Created by potrace 1.16, written by Peter Selinger 2001-2019
</metadata>
<g transform="translate(0.000000,1500.000000) scale(0.100000,-0.100000)"
fill="#000000" stroke="none">
<path d="M7050 14849 c-1334 -82 -2600 -509 -3715 -1254 -280 -187 -508 -361
-819 -625 -171 -145 -182 -153 -195 -148 -5 1 16 34 47 73 31 38 56 71 54 72
-1 2 10 21 24 43 15 22 24 43 21 47 -9 8 -155 -127 -322 -299 -1026 -1050
-1709 -2332 -1999 -3753 -103 -504 -146 -949 -146 -1505 0 -347 9 -535 41
-825 223 -2059 1300 -3943 2965 -5187 1174 -877 2538 -1379 4008 -1477 205
-14 767 -14 972 0 2209 147 4213 1235 5531 3003 873 1171 1375 2534 1472 4000
14 205 14 767 0 972 -114 1722 -789 3304 -1954 4584 -134 147 -491 500 -507
500 -15 0 -8 -17 27 -64 20 -25 33 -46 30 -46 -3 0 19 -30 49 -67 30 -38 50
-70 45 -71 -13 -5 -14 -5 -265 206 -367 309 -728 568 -1074 773 -1061 630
-2186 975 -3420 1049 -191 11 -674 11 -870 -1z m1110 -358 c553 -54 1028 -154
1540 -323 2270 -747 4021 -2626 4600 -4935 57 -230 62 -264 65 -418 2 -82 7
-215 12 -295 10 -181 10 -882 -1 -1012 l-8 -98 -47 0 -48 0 -6 288 c-35 1681
-727 3308 -1932 4541 -540 552 -1132 980 -1840 1331 -782 388 -1572 606 -2465
682 -93 8 -305 13 -530 13 -478 0 -744 -22 -1170 -96 -913 -158 -1809 -517
-2589 -1037 -570 -379 -1100 -867 -1537 -1413 -917 -1147 -1441 -2579 -1471
-4021 l-6 -288 -47 0 -48 0 -8 108 c-11 142 -11 819 -1 1002 5 80 10 213 12
295 1 91 9 179 19 223 336 1510 1164 2864 2360 3861 1100 917 2457 1475 3876
1595 277 24 276 24 685 20 288 -2 430 -8 585 -23z m-310 -541 c901 -51 1734
-269 2531 -661 1761 -867 3048 -2498 3478 -4407 112 -495 156 -905 156 -1442
0 -537 -44 -947 -156 -1442 -612 -2716 -2917 -4762 -5684 -5043 -1907 -194
-3774 440 -5158 1752 -1638 1553 -2354 3821 -1906 6038 397 1962 1704 3655
3508 4544 1003 494 2124 723 3231 661z"/>
<path d="M7195 13904 c-1632 -87 -3121 -746 -4266 -1886 -1016 -1014 -1669
-2344 -1848 -3768 -36 -288 -46 -459 -46 -810 0 -351 10 -522 46 -810 179
-1424 831 -2754 1848 -3768 1020 -1016 2347 -1666 3761 -1841 299 -37 449 -45
810 -45 361 0 511 8 810 45 1607 199 3097 1012 4144 2259 802 956 1310 2119
1465 3350 36 288 46 459 46 810 0 351 -10 522 -46 810 -93 738 -308 1440 -644
2105 -598 1180 -1518 2129 -2680 2765 -779 427 -1626 684 -2525 765 -166 15
-722 27 -875 19z m750 -285 c645 -45 1304 -201 1893 -447 110 -46 152 -70 216
-122 44 -35 75 -65 69 -67 -5 -2 -108 34 -229 80 -578 222 -1025 340 -1557
411 -323 44 -444 51 -837 51 -393 0 -514 -7 -837 -51 -241 -32 -418 -65 -643
-120 -306 -74 -561 -155 -914 -291 -121 -46 -224 -82 -229 -80 -6 2 25 32 69
67 58 48 108 76 189 111 669 283 1412 445 2175 473 127 4 476 -4 635 -15z
m-165 -709 c1383 -78 2618 -629 3590 -1600 831 -831 1369 -1901 1539 -3060 42
-282 55 -473 55 -800 0 -326 -13 -511 -55 -800 -191 -1323 -874 -2538 -1912
-3403 -1332 -1111 -3117 -1522 -4807 -1106 -1548 380 -2848 1417 -3574 2849
-314 620 -502 1286 -567 2020 -19 212 -17 713 5 930 84 856 330 1611 757 2322
730 1217 1916 2110 3281 2472 547 145 1138 207 1688 176z"/>
<path d="M7100 12859 c-1171 -93 -2236 -532 -3120 -1284 -156 -133 -502 -482
-630 -635 -616 -740 -1013 -1581 -1185 -2514 -96 -523 -112 -1101 -45 -1652
98 -809 389 -1601 837 -2284 217 -329 414 -571 703 -861 228 -229 363 -348
585 -514 742 -557 1592 -909 2495 -1034 292 -40 389 -46 760 -46 381 0 476 6
789 51 1004 143 1951 574 2736 1244 160 137 495 475 624 630 502 601 855 1264
1067 2003 84 293 141 592 181 947 25 225 25 847 0 1085 -71 663 -240 1253
-527 1840 -193 394 -428 754 -721 1105 -129 155 -464 493 -624 630 -571 488
-1246 858 -1950 1070 -343 103 -635 162 -1030 206 -166 19 -770 27 -945 13z
m-170 -1834 c0 -3 -9 -22 -19 -43 -60 -117 -131 -334 -435 -1317 -165 -536
-241 -764 -281 -850 -33 -69 -120 -165 -184 -203 -25 -14 -78 -36 -119 -47
l-73 -22 33 -25 c18 -14 43 -30 56 -37 47 -25 17 -26 -105 -4 -70 13 -131 22
-135 21 -4 -2 59 -45 142 -97 82 -52 148 -96 146 -98 -8 -8 -278 87 -414 146
-118 51 -457 214 -471 227 -12 11 12 10 89 -2 144 -24 375 -35 480 -23 179 20
312 80 377 172 100 139 230 485 453 1202 203 655 283 848 396 962 39 38 64 53
64 38z m650 -1453 c257 -84 434 -317 447 -587 13 -272 -122 -502 -365 -621
-193 -94 -434 -83 -619 28 -124 74 -239 218 -285 358 -32 100 -36 264 -8 366
32 120 83 208 170 294 84 84 164 132 280 167 65 20 92 23 195 19 87 -2 138 -9
185 -24z m-3415 -565 c217 -88 284 -113 323 -122 17 -3 32 -11 32 -15 0 -5 7
-6 17 -3 12 5 14 3 8 -7 -6 -10 -4 -12 8 -7 10 3 17 2 17 -3 0 -5 7 -7 15 -4
8 4 15 1 15 -5 0 -6 7 -8 17 -4 11 4 14 3 9 -5 -5 -8 -2 -10 9 -6 14 6 16 -10
14 -145 0 -89 -5 -149 -10 -145 -5 3 -7 9 -4 14 5 8 -20 23 -41 25 -7 0 -22
11 -34 25 -12 14 -18 18 -14 10 6 -12 5 -13 -7 -4 -8 6 -61 46 -119 90 -58 43
-139 107 -180 143 -89 76 -264 245 -247 238 7 -3 84 -35 172 -70z m1890 -1239
c90 -40 120 -57 78 -44 -20 6 -23 4 -23 -18 0 -15 -7 -26 -17 -29 -11 -3 -7
-5 10 -6 52 -2 275 -81 380 -135 128 -66 258 -152 374 -249 164 -137 383 -377
383 -420 0 -10 -26 -45 -58 -76 -74 -74 -141 -101 -250 -101 -236 1 -456 136
-616 380 -49 75 -150 276 -162 324 -3 15 -11 23 -17 19 -6 -3 -7 -1 -3 6 4 6
-1 39 -12 74 -11 34 -26 86 -32 115 -7 28 -15 54 -20 57 -4 2 2 -30 13 -73 28
-104 38 -499 13 -499 -8 0 -13 4 -9 9 3 5 -4 18 -16 29 -19 18 -26 38 -22 62
0 4 -4 7 -10 7 -5 0 -7 5 -4 10 3 6 2 10 -3 10 -26 0 -169 447 -197 612 l-6
38 68 -31 c37 -17 109 -49 158 -71z m919 -369 c95 -102 95 -101 46 -146 -24
-21 -45 -39 -49 -41 -7 -2 -141 110 -145 120 -2 9 75 128 84 128 4 0 33 -27
64 -61z m1716 -96 c0 -12 -72 -138 -123 -213 -168 -252 -340 -387 -518 -410
-179 -22 -357 36 -448 147 -24 29 -28 40 -19 50 25 30 227 158 337 212 205
103 427 174 638 205 119 17 133 18 133 9z m-2360 -290 c55 -93 151 -193 219
-228 28 -14 51 -28 51 -31 0 -17 -63 -114 -74 -114 -47 0 -238 160 -303 252
-14 21 -30 35 -36 31 -6 -3 -7 -1 -3 5 4 7 -5 32 -20 57 l-26 45 63 30 c35 16
69 29 74 29 6 0 30 -34 55 -76z m-80 -311 c11 -11 12 -13 1 -7 -11 6 -13 4 -7
-11 6 -15 3 -14 -18 5 -15 14 -26 21 -26 17 0 -19 236 -204 403 -314 70 -46
126 -86 123 -89 -2 -2 -78 25 -168 60 -89 36 -164 65 -165 64 -1 -1 39 -58 88
-127 49 -69 89 -128 89 -132 0 -4 -39 21 -87 57 -48 35 -89 62 -91 60 -5 -5
65 -196 108 -295 101 -230 229 -464 357 -655 67 -100 69 -105 28 -60 -108 117
-255 338 -394 593 -73 134 -262 518 -275 559 -5 15 -12 20 -24 16 -15 -6 -15
-5 -3 10 12 15 12 17 0 12 -9 -3 -18 5 -25 22 -6 16 -46 111 -88 213 -42 102
-85 207 -96 234 l-20 49 138 -133 c75 -74 144 -140 152 -148z m-1346 185
c-393 -411 -422 -445 -524 -603 -41 -66 -48 -82 -43 -112 5 -26 3 -33 -6 -28
-7 4 -9 17 -6 29 6 21 5 21 -9 3 -18 -22 -69 21 614 -507 267 -206 511 -395
542 -419 l57 -44 -107 -56 c-155 -81 -253 -151 -368 -265 -85 -85 -165 -184
-164 -204 0 -3 75 -55 165 -115 148 -97 199 -135 147 -107 -10 5 -106 52 -215
105 -108 52 -197 98 -197 101 0 17 88 131 157 205 93 100 221 200 343 271 50
28 90 54 90 58 -1 3 -202 162 -448 353 -592 459 -641 496 -613 465 18 -19 22
-30 14 -38 -8 -8 -15 -4 -27 13 -9 12 -18 21 -19 18 -2 -3 -39 22 -84 55 l-81
60 81 118 c45 65 90 125 101 133 12 8 22 19 22 24 3 20 4 21 14 15 6 -4 -2
-25 -20 -51 -48 -69 -29 -52 46 43 84 107 258 283 379 384 94 79 224 179 233
179 3 0 -31 -37 -74 -83z m5566 -648 c33 -50 60 -94 60 -99 0 -4 -46 -43 -102
-85 -57 -43 -109 -82 -116 -88 -7 -6 -4 10 8 37 24 57 24 57 5 50 -27 -11 -16
1 45 46 33 25 60 49 60 54 0 5 -14 34 -31 65 -17 31 -25 50 -18 44 7 -7 17
-13 21 -13 13 0 9 65 -4 79 -10 10 -10 12 -1 7 7 -4 39 -47 73 -97z"/>
<path d="M7278 9367 c-31 -7 -78 -26 -105 -43 -116 -70 -139 -248 -45 -347 35
-37 75 -57 195 -97 117 -38 157 -68 157 -115 0 -45 -38 -75 -94 -75 -49 0 -79
18 -96 60 l-12 30 -104 0 -104 0 0 -27 c1 -70 63 -153 147 -194 43 -21 62 -24
168 -24 114 0 123 1 174 30 93 51 131 118 131 226 0 109 -58 165 -234 229 -60
22 -120 47 -133 55 -83 55 -26 161 71 134 37 -11 66 -37 66 -61 0 -16 10 -18
111 -18 l112 0 -7 43 c-13 79 -78 151 -166 182 -61 21 -165 27 -232 12z"/>
</g>
</svg>
